<svg width="400" height="545" viewBox="0 0 400 545" fill="none" xmlns="http://www.w3.org/2000/svg">
<g clip-path="url(#clip0_2655_903)">
<path fill-rule="evenodd" clip-rule="evenodd" d="M24.576 452.896C23.744 455.072 22.304 456.16 20.256 456.16H2.112C1.536 456.16 1.024 455.968 0.576 455.584C0.192 455.136 0 454.624 0 454.048L0.096 453.472L21.024 392.128C21.28 391.296 21.76 390.56 22.464 389.92C23.168 389.28 24.128 388.96 25.344 388.96H52.032C53.248 388.96 54.208 389.28 54.912 389.92C55.616 390.56 56.096 391.296 56.352 392.128L77.28 453.472L77.376 454.048C77.376 454.624 77.152 455.136 76.704 455.584C76.32 455.968 75.84 456.16 75.264 456.16H57.12C55.072 456.16 53.632 455.072 52.8 452.896L50.4 446.176H26.976L24.576 452.896ZM31.872 427.456L38.688 407.488L45.504 427.456H31.872Z" fill="white"/>
<path fill-rule="evenodd" clip-rule="evenodd" d="M153.082 388.96C153.786 388.96 154.394 389.216 154.906 389.728C155.418 390.24 155.674 390.848 155.674 391.552V407.008C155.674 407.712 155.418 408.32 154.906 408.832C154.394 409.344 153.786 409.6 153.082 409.6H132.442V453.568C132.442 454.272 132.186 454.88 131.674 455.392C131.162 455.904 130.554 456.16 129.85 456.16H110.074C109.37 456.16 108.762 455.904 108.25 455.392C107.738 454.88 107.482 454.272 107.482 453.568V409.6H86.8425C86.1385 409.6 85.5305 409.344 85.0185 408.832C84.5065 408.32 84.2505 407.712 84.2505 407.008V391.552C84.2505 390.848 84.5065 390.24 85.0185 389.728C85.5305 389.216 86.1385 388.96 86.8425 388.96H153.082Z" fill="white"/>
<path fill-rule="evenodd" clip-rule="evenodd" d="M234.645 437.248C234.133 436.736 233.525 436.48 232.821 436.48H200.085V391.552C200.085 390.848 199.829 390.24 199.317 389.728C198.805 389.216 198.197 388.96 197.493 388.96H176.757C176.053 388.96 175.445 389.216 174.933 389.728C174.421 390.24 174.165 390.848 174.165 391.552V453.568C174.165 454.272 174.421 454.88 174.933 455.392C175.445 455.904 176.053 456.16 176.757 456.16H232.821C233.525 456.16 234.133 455.904 234.645 455.392C235.157 454.88 235.413 454.272 235.413 453.568V439.072C235.413 438.368 235.157 437.76 234.645 437.248Z" fill="white"/>
<path fill-rule="evenodd" clip-rule="evenodd" d="M269.263 452.896C268.431 455.072 266.991 456.16 264.943 456.16H246.799C246.223 456.16 245.711 455.968 245.263 455.584C244.879 455.136 244.687 454.624 244.687 454.048L244.783 453.472L265.711 392.128C265.967 391.296 266.447 390.56 267.151 389.92C267.855 389.28 268.815 388.96 270.031 388.96H296.719C297.935 388.96 298.895 389.28 299.599 389.92C300.303 390.56 300.783 391.296 301.039 392.128L321.967 453.472L322.063 454.048C322.063 454.624 321.839 455.136 321.391 455.584C321.007 455.968 320.527 456.16 319.951 456.16H301.807C299.759 456.16 298.319 455.072 297.487 452.896L295.087 446.176H271.663L269.263 452.896ZM276.559 427.456L283.375 407.488L290.191 427.456H276.559Z" fill="white"/>
<path fill-rule="evenodd" clip-rule="evenodd" d="M386.826 417.088C382.602 415.36 376.97 414.112 369.93 413.344C364.938 412.768 361.61 412.224 359.946 411.712C358.282 411.136 357.45 410.368 357.45 409.408C357.45 407.616 359.594 406.72 363.882 406.72C365.866 406.72 367.338 406.912 368.298 407.296C369.258 407.68 370.09 408.192 370.794 408.832C371.69 409.6 372.682 409.984 373.77 409.984H394.41C395.114 409.984 395.658 409.792 396.042 409.408C396.49 409.024 396.714 408.512 396.714 407.872C396.714 404.928 395.402 401.92 392.778 398.848C390.154 395.776 386.346 393.216 381.354 391.168C376.362 389.056 370.538 388 363.882 388C357.482 388 351.85 388.928 346.986 390.784C342.186 392.64 338.474 395.232 335.85 398.56C333.226 401.888 331.914 405.728 331.914 410.08C331.914 416.224 334.25 420.992 338.922 424.384C343.594 427.712 350.314 429.888 359.082 430.912C362.986 431.36 365.93 431.808 367.914 432.256C369.962 432.64 371.37 433.12 372.138 433.696C372.97 434.208 373.386 434.848 373.386 435.616C373.386 437.472 370.346 438.4 364.266 438.4C361.834 438.4 359.946 438.24 358.602 437.92C357.258 437.536 356.042 436.832 354.954 435.808C354.122 434.976 353.034 434.56 351.69 434.56H332.01C331.37 434.56 330.826 434.752 330.378 435.136C329.994 435.52 329.802 436.032 329.802 436.672C329.802 440.384 331.082 443.808 333.642 446.944C336.202 450.016 340.074 452.48 345.258 454.336C350.442 456.192 356.778 457.12 364.266 457.12C370.986 457.12 376.97 456.224 382.218 454.432C387.466 452.576 391.562 449.952 394.506 446.56C397.514 443.104 399.018 439.072 399.018 434.464C399.018 430.24 398.058 426.72 396.138 423.904C394.218 421.088 391.114 418.816 386.826 417.088Z" fill="white"/>
</g>
<path d="M67.9586 352.297L200.101 220.155L332.243 352.297L394.201 350.899L200.406 157.104L200.101 157.409L199.795 157.104L6.00001 350.899L67.9586 352.297Z" fill="white"/>
<path d="M67.9586 195.498L200.101 63.3562L332.243 195.498L394.201 194.101L200.406 0.305302L200.101 0.610605L199.795 0.305302L6.00001 194.101L67.9586 195.498Z" fill="white"/>
<defs>
<clipPath id="clip0_2655_903">
<rect width="400" height="70" fill="white" transform="translate(0 388)"/>
</clipPath>
</defs>
</svg>
