<svg width="471" height="68" viewBox="0 0 471 68" fill="none" xmlns="http://www.w3.org/2000/svg">
<g filter="url(#filter0_dd_6360_257)">
<rect x="3" y="2" width="465" height="62" rx="6" fill="#0B0077"/>
<path fill-rule="evenodd" clip-rule="evenodd" d="M131.448 38.8604V39.0094C131.472 40.0702 131.788 43.9126 135.16 44.6257H131.448C129.563 44.6257 128.033 43.0966 128.033 41.2126V21.3301C129.918 21.3301 131.448 22.8592 131.448 24.7432V38.7362V38.8604ZM147.429 29.7418C148.618 30.6288 150.666 35.9897 148.579 36.5112H138.094C137.824 40.9106 142.325 43.2948 145.92 41.1909C147.722 40.0072 147.981 40.3686 149.005 41.7966L149.083 41.906L149.171 42.0282C145.406 46.2219 137.086 45.3952 135.287 39.6618C132.113 31.8386 140.44 23.909 147.429 29.7418ZM146.304 34.4002H138.19C138.342 29.0996 146.57 28.9612 146.304 34.4002ZM123.832 21.3413H123.659V21.3484C122.587 21.3661 121.657 21.5435 120.848 21.8451C119.992 22.2176 119.3 22.7001 118.739 23.3104C118.178 23.9241 117.753 24.6195 117.486 25.3894C117.192 26.1913 117.06 27.0428 117.06 27.9227V28.6677H114.583C114.959 29.5192 115.9 30.8674 118.1 30.9703C118.1 30.9703 117.671 31.428 117.06 31.8679V41.1706V44.6369C118.193 44.6369 119.201 44.0799 119.829 43.2284C120.248 42.6572 120.503 41.9582 120.503 41.1954V31.1229H124.45V28.6677H120.397V27.9227C120.397 26.5922 120.741 25.5775 121.408 24.8573C121.997 24.2435 122.796 23.8993 123.808 23.8177C123.808 23.8177 123.925 23.8177 124.109 23.8142C125.227 23.8142 126.132 22.9094 126.132 21.7918V21.3413H123.836H123.832ZM165.417 44.6699H164.992C162.839 44.6699 160.838 43.5403 159.718 41.7019L159.153 40.7746L159.152 40.7735C158.243 39.2813 157.415 37.9215 157.369 37.8392C157.274 38.2088 157.146 38.5294 156.986 38.8011L153.585 43.9852C153.468 44.1591 153.335 44.3167 153.186 44.458C153.048 44.5992 152.862 44.6699 152.627 44.6699H149.562L155.198 36.0949L152.447 32.0017C151.858 31.3402 151.309 30.6426 150.801 29.9172L149.512 28.0758C149.613 28.0758 149.713 28.0778 149.812 28.0819L149.785 28.0416H150.151C152.391 28.0416 154.471 29.2022 155.647 31.1087C156.365 32.273 157.095 33.4577 157.451 34.0374C157.551 33.7457 157.676 33.4547 157.86 33.1848L160.98 28.6222C161.193 28.2567 161.459 28.0758 161.807 28.0758H161.813C161.887 28.053 161.966 28.0416 162.048 28.0416H165.193L159.78 35.9482L165.417 44.6699Z" fill="white"/>
<path fill-rule="evenodd" clip-rule="evenodd" d="M177.417 47.791L177.417 18.209L178.417 18.209L178.417 47.791L177.417 47.791Z" fill="white"/>
<path d="M191.935 39.5V25.6818H196.861C197.936 25.6818 198.826 25.8775 199.532 26.2688C200.239 26.6602 200.767 27.1954 201.118 27.8746C201.469 28.5494 201.644 29.3095 201.644 30.1552C201.644 31.0053 201.467 31.77 201.111 32.4492C200.76 33.1239 200.23 33.6592 199.519 34.055C198.813 34.4464 197.924 34.642 196.854 34.642H193.467V32.8743H196.665C197.344 32.8743 197.895 32.7573 198.318 32.5234C198.741 32.285 199.051 31.9612 199.249 31.5518C199.447 31.1425 199.546 30.677 199.546 30.1552C199.546 29.6334 199.447 29.1701 199.249 28.7653C199.051 28.3604 198.738 28.0433 198.311 27.8139C197.888 27.5845 197.331 27.4698 196.638 27.4698H194.02V39.5H191.935ZM206.85 39.7294C206.193 39.7294 205.599 39.608 205.068 39.3651C204.538 39.1177 204.117 38.7601 203.807 38.2923C203.501 37.8245 203.348 37.2509 203.348 36.5717C203.348 35.987 203.46 35.5057 203.685 35.1278C203.91 34.75 204.214 34.4509 204.596 34.2305C204.978 34.0101 205.406 33.8436 205.878 33.7312C206.35 33.6187 206.832 33.5333 207.322 33.4748C207.943 33.4028 208.447 33.3443 208.833 33.2994C209.22 33.2499 209.501 33.1712 209.677 33.0632C209.852 32.9553 209.94 32.7798 209.94 32.5369V32.4897C209.94 31.9004 209.773 31.4439 209.441 31.12C209.112 30.7962 208.622 30.6342 207.97 30.6342C207.291 30.6342 206.755 30.7849 206.364 31.0863C205.977 31.3832 205.709 31.7138 205.561 32.0781L203.665 31.6463C203.89 31.0166 204.218 30.5083 204.65 30.1214C205.086 29.7301 205.588 29.4467 206.155 29.2713C206.722 29.0914 207.318 29.0014 207.943 29.0014C208.357 29.0014 208.795 29.0509 209.258 29.1499C209.726 29.2443 210.163 29.4197 210.567 29.6761C210.977 29.9325 211.312 30.2991 211.573 30.7759C211.834 31.2482 211.964 31.8622 211.964 32.6179V39.5H209.994V38.0831H209.913C209.782 38.344 209.587 38.6004 209.326 38.8523C209.065 39.1042 208.73 39.3133 208.321 39.4798C207.911 39.6462 207.421 39.7294 206.85 39.7294ZM207.288 38.1101C207.846 38.1101 208.323 37.9999 208.719 37.7795C209.119 37.5591 209.423 37.2712 209.63 36.9158C209.841 36.556 209.947 36.1714 209.947 35.7621V34.4261C209.875 34.4981 209.735 34.5656 209.528 34.6286C209.326 34.687 209.094 34.7388 208.833 34.7837C208.572 34.8242 208.318 34.8625 208.071 34.8984C207.824 34.9299 207.617 34.9569 207.45 34.9794C207.059 35.0289 206.701 35.1121 206.377 35.229C206.058 35.346 205.802 35.5147 205.608 35.7351C205.419 35.951 205.325 36.2389 205.325 36.5987C205.325 37.098 205.509 37.4759 205.878 37.7322C206.247 37.9841 206.717 38.1101 207.288 38.1101ZM215.555 43.3864C215.254 43.3864 214.979 43.3616 214.732 43.3121C214.485 43.2672 214.3 43.2177 214.179 43.1637L214.665 41.5107C215.033 41.6096 215.362 41.6523 215.65 41.6388C215.938 41.6254 216.192 41.5174 216.412 41.315C216.637 41.1126 216.835 40.782 217.006 40.3232L217.256 39.6349L213.464 29.1364H215.623L218.247 37.179H218.355L220.98 29.1364H223.146L218.875 40.8832C218.677 41.4229 218.425 41.8795 218.119 42.2528C217.813 42.6307 217.449 42.9141 217.026 43.103C216.603 43.2919 216.113 43.3864 215.555 43.3864ZM232.317 39.5L229.267 29.1364H231.352L233.383 36.7472H233.484L235.522 29.1364H237.607L239.631 36.7134H239.732L241.749 29.1364H243.834L240.791 39.5H238.733L236.628 32.0174H236.473L234.368 39.5H232.317ZM245.749 39.5V29.1364H247.766V39.5H245.749ZM246.768 27.5373C246.417 27.5373 246.115 27.4203 245.863 27.1864C245.616 26.948 245.492 26.6647 245.492 26.3363C245.492 26.0034 245.616 25.7201 245.863 25.4861C246.115 25.2478 246.417 25.1286 246.768 25.1286C247.118 25.1286 247.418 25.2478 247.665 25.4861C247.917 25.7201 248.043 26.0034 248.043 26.3363C248.043 26.6647 247.917 26.948 247.665 27.1864C247.418 27.4203 247.118 27.5373 246.768 27.5373ZM255.318 29.1364V30.7557H249.657V29.1364H255.318ZM251.175 26.6534H253.193V36.457C253.193 36.8484 253.251 37.143 253.368 37.3409C253.485 37.5343 253.636 37.667 253.82 37.739C254.009 37.8065 254.214 37.8402 254.434 37.8402C254.596 37.8402 254.738 37.829 254.859 37.8065C254.981 37.784 255.075 37.766 255.142 37.7525L255.507 39.419C255.39 39.464 255.223 39.509 255.008 39.554C254.792 39.6035 254.522 39.6304 254.198 39.6349C253.667 39.6439 253.172 39.5495 252.714 39.3516C252.255 39.1536 251.884 38.8478 251.6 38.4339C251.317 38.0201 251.175 37.5006 251.175 36.8754V26.6534ZM259.79 33.3466V39.5H257.772V25.6818H259.763V30.8232H259.891C260.134 30.2654 260.505 29.8223 261.004 29.494C261.503 29.1656 262.156 29.0014 262.961 29.0014C263.671 29.0014 264.292 29.1476 264.823 29.44C265.358 29.7324 265.772 30.1687 266.064 30.7489C266.361 31.3247 266.51 32.0444 266.51 32.908V39.5H264.492V33.1509C264.492 32.3907 264.297 31.8015 263.905 31.3832C263.514 30.9603 262.97 30.7489 262.273 30.7489C261.796 30.7489 261.368 30.8501 260.991 31.0526C260.617 31.255 260.323 31.5518 260.107 31.9432C259.895 32.33 259.79 32.7978 259.79 33.3466ZM274.392 39.5V25.6818H276.477V31.6868H283.366V25.6818H285.457V39.5H283.366V33.4748H276.477V39.5H274.392ZM296.03 29.3118C295.958 28.6731 295.661 28.1783 295.14 27.8274C294.618 27.4721 293.961 27.2944 293.169 27.2944C292.603 27.2944 292.112 27.3844 291.699 27.5643C291.285 27.7397 290.963 27.9826 290.734 28.293C290.509 28.5988 290.396 28.9474 290.396 29.3388C290.396 29.6671 290.473 29.9505 290.626 30.1889C290.783 30.4273 290.988 30.6275 291.24 30.7894C291.496 30.9469 291.771 31.0795 292.063 31.1875C292.355 31.291 292.636 31.3764 292.906 31.4439L294.256 31.7947C294.697 31.9027 295.149 32.0489 295.612 32.2333C296.075 32.4177 296.505 32.6606 296.901 32.962C297.296 33.2634 297.616 33.6367 297.859 34.082C298.106 34.5273 298.23 35.0604 298.23 35.6811C298.23 36.4638 298.027 37.1587 297.623 37.766C297.222 38.3732 296.64 38.8523 295.875 39.2031C295.115 39.554 294.195 39.7294 293.116 39.7294C292.081 39.7294 291.186 39.5652 290.43 39.2369C289.674 38.9085 289.083 38.4429 288.656 37.8402C288.228 37.233 287.992 36.5133 287.947 35.6811H290.039C290.079 36.1804 290.241 36.5965 290.525 36.9293C290.812 37.2577 291.179 37.5028 291.624 37.6648C292.074 37.8222 292.567 37.9009 293.102 37.9009C293.691 37.9009 294.215 37.8087 294.674 37.6243C295.137 37.4354 295.502 37.1745 295.767 36.8416C296.033 36.5043 296.165 36.1107 296.165 35.6609C296.165 35.2515 296.048 34.9164 295.814 34.6555C295.585 34.3946 295.272 34.1787 294.877 34.0078C294.485 33.8369 294.042 33.6862 293.547 33.5558L291.915 33.1104C290.808 32.8091 289.931 32.366 289.283 31.7812C288.64 31.1965 288.318 30.4228 288.318 29.4602C288.318 28.6641 288.534 27.9691 288.966 27.3754C289.398 26.7816 289.983 26.3205 290.72 25.9922C291.458 25.6593 292.29 25.4929 293.217 25.4929C294.152 25.4929 294.978 25.6571 295.693 25.9854C296.413 26.3138 296.979 26.7659 297.393 27.3416C297.807 27.9129 298.023 28.5696 298.041 29.3118H296.03ZM301.777 39.5H299.564L304.537 25.6818H306.945L311.918 39.5H309.705L305.798 28.1918H305.691L301.777 39.5ZM302.148 34.0888H309.327V35.843H302.148V34.0888ZM319.014 25.0341L314.561 41.5781H312.76L317.213 25.0341H319.014ZM320.89 39.5V25.6818H329.459V27.4766H322.975V31.6868H328.845V33.4748H322.975V39.5H320.89ZM339.56 29.3118C339.488 28.6731 339.191 28.1783 338.669 27.8274C338.147 27.4721 337.49 27.2944 336.699 27.2944C336.132 27.2944 335.642 27.3844 335.228 27.5643C334.814 27.7397 334.492 27.9826 334.263 28.293C334.038 28.5988 333.926 28.9474 333.926 29.3388C333.926 29.6671 334.002 29.9505 334.155 30.1889C334.313 30.4273 334.517 30.6275 334.769 30.7894C335.025 30.9469 335.3 31.0795 335.592 31.1875C335.885 31.291 336.166 31.3764 336.436 31.4439L337.785 31.7947C338.226 31.9027 338.678 32.0489 339.141 32.2333C339.605 32.4177 340.034 32.6606 340.43 32.962C340.826 33.2634 341.145 33.6367 341.388 34.082C341.635 34.5273 341.759 35.0604 341.759 35.6811C341.759 36.4638 341.557 37.1587 341.152 37.766C340.752 38.3732 340.169 38.8523 339.404 39.2031C338.644 39.554 337.724 39.7294 336.645 39.7294C335.61 39.7294 334.715 39.5652 333.959 39.2369C333.204 38.9085 332.612 38.4429 332.185 37.8402C331.758 37.233 331.521 36.5133 331.476 35.6811H333.568C333.609 36.1804 333.771 36.5965 334.054 36.9293C334.342 37.2577 334.708 37.5028 335.154 37.6648C335.603 37.8222 336.096 37.9009 336.631 37.9009C337.221 37.9009 337.745 37.8087 338.203 37.6243C338.667 37.4354 339.031 37.1745 339.296 36.8416C339.562 36.5043 339.695 36.1107 339.695 35.6609C339.695 35.2515 339.578 34.9164 339.344 34.6555C339.114 34.3946 338.802 34.1787 338.406 34.0078C338.014 33.8369 337.571 33.6862 337.077 33.5558L335.444 33.1104C334.337 32.8091 333.46 32.366 332.812 31.7812C332.169 31.1965 331.848 30.4228 331.848 29.4602C331.848 28.6641 332.063 27.9691 332.495 27.3754C332.927 26.7816 333.512 26.3205 334.25 25.9922C334.987 25.6593 335.819 25.4929 336.746 25.4929C337.682 25.4929 338.507 25.6571 339.222 25.9854C339.942 26.3138 340.509 26.7659 340.922 27.3416C341.336 27.9129 341.552 28.5696 341.57 29.3118H339.56ZM345.306 39.5H343.093L348.066 25.6818H350.475L355.447 39.5H353.234L349.328 28.1918H349.22L345.306 39.5ZM345.678 34.0888H352.857V35.843H345.678V34.0888Z" fill="white"/>
</g>
<defs>
<filter id="filter0_dd_6360_257" x="0" y="0" width="471" height="68" filterUnits="userSpaceOnUse" color-interpolation-filters="sRGB">
<feFlood flood-opacity="0" result="BackgroundImageFix"/>
<feColorMatrix in="SourceAlpha" type="matrix" values="0 0 0 0 0 0 0 0 0 0 0 0 0 0 0 0 0 0 127 0" result="hardAlpha"/>
<feMorphology radius="1" operator="erode" in="SourceAlpha" result="effect1_dropShadow_6360_257"/>
<feOffset dy="1"/>
<feGaussianBlur stdDeviation="1"/>
<feColorMatrix type="matrix" values="0 0 0 0 0.0901961 0 0 0 0 0.0901961 0 0 0 0 0.0901961 0 0 0 0.1 0"/>
<feBlend mode="normal" in2="BackgroundImageFix" result="effect1_dropShadow_6360_257"/>
<feColorMatrix in="SourceAlpha" type="matrix" values="0 0 0 0 0 0 0 0 0 0 0 0 0 0 0 0 0 0 127 0" result="hardAlpha"/>
<feOffset dy="1"/>
<feGaussianBlur stdDeviation="1.5"/>
<feColorMatrix type="matrix" values="0 0 0 0 0.0901961 0 0 0 0 0.0901961 0 0 0 0 0.0901961 0 0 0 0.1 0"/>
<feBlend mode="normal" in2="effect1_dropShadow_6360_257" result="effect2_dropShadow_6360_257"/>
<feBlend mode="normal" in="SourceGraphic" in2="effect2_dropShadow_6360_257" result="shape"/>
</filter>
</defs>
</svg>
