<svg width="400" height="70" viewBox="0 0 400 70" fill="none" xmlns="http://www.w3.org/2000/svg">
<path d="M24.576 64.8959C23.744 67.0719 22.304 68.1599 20.256 68.1599H2.11198C1.53598 68.1599 1.02398 67.9679 0.575976 67.5839C0.191976 67.1359 -2.43783e-05 66.6239 -2.43783e-05 66.0479L0.0959756 65.4719L21.024 4.12791C21.28 3.29591 21.76 2.55991 22.464 1.91991C23.168 1.27991 24.128 0.959908 25.344 0.959908H52.032C53.248 0.959908 54.208 1.27991 54.912 1.91991C55.616 2.55991 56.096 3.29591 56.352 4.12791L77.28 65.4719L77.376 66.0479C77.376 66.6239 77.152 67.1359 76.704 67.5839C76.32 67.9679 75.84 68.1599 75.264 68.1599H57.12C55.072 68.1599 53.632 67.0719 52.8 64.8959L50.4 58.1759H26.976L24.576 64.8959ZM38.688 19.4879L31.872 39.4559H45.504L38.688 19.4879ZM153.082 0.959908C153.786 0.959908 154.394 1.21591 154.906 1.72791C155.418 2.23991 155.674 2.84791 155.674 3.55191V19.0079C155.674 19.7119 155.418 20.3199 154.906 20.8319C154.394 21.3439 153.786 21.5999 153.082 21.5999H132.442V65.5679C132.442 66.2719 132.186 66.8799 131.674 67.3919C131.162 67.9039 130.554 68.1599 129.85 68.1599H110.074C109.37 68.1599 108.762 67.9039 108.25 67.3919C107.738 66.8799 107.482 66.2719 107.482 65.5679V21.5999H86.8425C86.1385 21.5999 85.5305 21.3439 85.0185 20.8319C84.5065 20.3199 84.2505 19.7119 84.2505 19.0079V3.55191C84.2505 2.84791 84.5065 2.23991 85.0185 1.72791C85.5305 1.21591 86.1385 0.959908 86.8425 0.959908H153.082ZM232.821 48.4799C233.525 48.4799 234.133 48.7359 234.645 49.2479C235.157 49.7599 235.413 50.3679 235.413 51.0719V65.5679C235.413 66.2719 235.157 66.8799 234.645 67.3919C234.133 67.9039 233.525 68.1599 232.821 68.1599H176.757C176.053 68.1599 175.445 67.9039 174.933 67.3919C174.421 66.8799 174.165 66.2719 174.165 65.5679V3.55191C174.165 2.84791 174.421 2.23991 174.933 1.72791C175.445 1.21591 176.053 0.959908 176.757 0.959908H197.493C198.197 0.959908 198.805 1.21591 199.317 1.72791C199.829 2.23991 200.085 2.84791 200.085 3.55191V48.4799H232.821ZM269.263 64.8959C268.431 67.0719 266.991 68.1599 264.943 68.1599H246.799C246.223 68.1599 245.711 67.9679 245.263 67.5839C244.879 67.1359 244.687 66.6239 244.687 66.0479L244.783 65.4719L265.711 4.12791C265.967 3.29591 266.447 2.55991 267.151 1.91991C267.855 1.27991 268.815 0.959908 270.031 0.959908H296.719C297.935 0.959908 298.895 1.27991 299.599 1.91991C300.303 2.55991 300.783 3.29591 301.039 4.12791L321.967 65.4719L322.063 66.0479C322.063 66.6239 321.839 67.1359 321.391 67.5839C321.007 67.9679 320.527 68.1599 319.951 68.1599H301.807C299.759 68.1599 298.319 67.0719 297.487 64.8959L295.087 58.1759H271.663L269.263 64.8959ZM283.375 19.4879L276.559 39.4559H290.191L283.375 19.4879ZM369.93 25.3439C376.97 26.1119 382.602 27.3599 386.826 29.0879C391.114 30.8159 394.218 33.0879 396.138 35.9039C398.058 38.7199 399.018 42.2399 399.018 46.4639C399.018 51.0719 397.514 55.1039 394.506 58.5599C391.562 61.9519 387.466 64.5759 382.218 66.4319C376.97 68.2239 370.986 69.1199 364.266 69.1199C356.778 69.1199 350.442 68.1919 345.258 66.3359C340.074 64.4799 336.202 62.0159 333.642 58.9439C331.082 55.8079 329.802 52.3839 329.802 48.6719C329.802 48.0319 329.994 47.5199 330.378 47.1359C330.826 46.7519 331.37 46.5599 332.01 46.5599H351.69C353.034 46.5599 354.122 46.9759 354.954 47.8079C356.042 48.8319 357.258 49.5359 358.602 49.9199C359.946 50.2399 361.834 50.3999 364.266 50.3999C370.346 50.3999 373.386 49.4719 373.386 47.6159C373.386 46.8479 372.97 46.2079 372.138 45.6959C371.37 45.1199 369.962 44.6399 367.914 44.2559C365.93 43.8079 362.986 43.3599 359.082 42.9119C350.314 41.8879 343.594 39.7119 338.922 36.3839C334.25 32.9919 331.914 28.2239 331.914 22.0799C331.914 17.7279 333.226 13.8879 335.85 10.5599C338.474 7.23191 342.186 4.63991 346.986 2.78391C351.85 0.927908 357.482 -9.15527e-05 363.882 -9.15527e-05C370.538 -9.15527e-05 376.362 1.05591 381.354 3.16791C386.346 5.21591 390.154 7.77591 392.778 10.8479C395.402 13.9199 396.714 16.9279 396.714 19.8719C396.714 20.5119 396.49 21.0239 396.042 21.4079C395.658 21.7919 395.114 21.9839 394.41 21.9839H373.77C372.682 21.9839 371.69 21.5999 370.794 20.8319C370.09 20.1919 369.258 19.6799 368.298 19.2959C367.338 18.9119 365.866 18.7199 363.882 18.7199C359.594 18.7199 357.45 19.6159 357.45 21.4079C357.45 22.3679 358.282 23.1359 359.946 23.7119C361.61 24.2239 364.938 24.7679 369.93 25.3439Z" fill="white"/>
</svg>
