<svg width="220" height="217" viewBox="0 0 220 217" fill="none" xmlns="http://www.w3.org/2000/svg">
<path d="M186.04 109.485L202.632 92.8934L218.808 109.07L186.04 109.485Z" fill="black" stroke="black"/>
<rect x="202.632" y="92.1863" width="25.1925" height="130.371" transform="rotate(135 202.632 92.1863)" fill="black"/>
<rect x="35.6274" y="110.445" width="25.1925" height="130.371" transform="rotate(-135 35.6274 110.445)" fill="black"/>
<path d="M1.20706 109.945L17.8137 93.3382L34.4204 109.945H1.20706Z" fill="black" stroke="black"/>
<path d="M186.04 198.07L202.632 181.479L218.808 197.656L186.04 198.07Z" fill="black" stroke="black"/>
<rect x="202.632" y="180.772" width="25.1925" height="130.371" transform="rotate(135 202.632 180.772)" fill="black"/>
<rect x="35.6274" y="199.031" width="25.1925" height="130.371" transform="rotate(-135 35.6274 199.031)" fill="black"/>
<path d="M1.20706 198.532L17.8137 181.925L34.4204 198.532H1.20706Z" fill="black" stroke="black"/>
</svg>
